<svg xmlns="http://www.w3.org/2000/svg" xmlns:xlink="http://www.w3.org/1999/xlink" xmlns:lucid="lucid" width="1399.91" height="1077.3"><g transform="translate(0 0)" lucid:page-tab-id="0_0"><path d="M0 0h1399.9v1077.3H0z" fill="#fff"/><path d="M89 300.5H38c-4.42 0-8-3.58-8-8v-108c0-4.4 3.58-8 8-8h51" stroke="#333" fill="none"/><path d="M89.5 301H89v-1h.5zM89.5 177H89v-1h.5z" fill="#333"/><path d="M569.94 469.3H851.8v33H569.94z" fill="#fff"/><path d="M569.94 501.3H851.8v33H569.94z" fill="#e6e6e6"/><path d="M569.94 533.3H851.8v36H569.94z" fill="#fff"/><path d="M569.94 568.3H851.8v36H569.94z" fill="#e6e6e6"/><path d="M569.94 603.3H851.8v32H569.94z" fill="#fff"/><path d="M569.94 429.3H851.8v40H569.94z" fill="#ccc"/><path d="M569.94 429.3H851.8v206H569.94zM569.94 469.3H851.8" stroke="#333" fill="none"/><use xlink:href="#a" transform="matrix(1,0,0,1,579.9375152723889,429.2943674482259) translate(5 25.15555555555556)"/><use xlink:href="#b" transform="matrix(1,0,0,1,574.9375152723889,471.7943674482259) translate(0 17.1)"/><use xlink:href="#c" transform="matrix(1,0,0,1,574.9375152723889,471.7943674482259) translate(5 17.1)"/><use xlink:href="#d" transform="matrix(1,0,0,1,574.9375152723889,471.7943674482259) translate(97.9 17.1)"/><use xlink:href="#b" transform="matrix(1,0,0,1,574.9375152723889,503.7943674482259) translate(0 17.1)"/><use xlink:href="#e" transform="matrix(1,0,0,1,574.9375152723889,503.7943674482259) translate(5 17.1)"/><use xlink:href="#f" transform="matrix(1,0,0,1,574.9375152723889,503.7943674482259) translate(80.9 17.1)"/><use xlink:href="#g" transform="matrix(1,0,0,1,574.9375152723889,535.7943674482259) translate(5 20.155555555555555)"/><use xlink:href="#h" transform="matrix(1,0,0,1,574.9375152723889,570.7943674482259) translate(5 20.155555555555555)"/><use xlink:href="#i" transform="matrix(1,0,0,1,574.9375152723889,605.7943674482259) translate(0 17.1)"/><use xlink:href="#j" transform="matrix(1,0,0,1,574.9375152723889,605.7943674482259) translate(5 17.1)"/><path d="M569.94 429.3H851.8v40H569.94z" stroke="#333" fill="#ffb781"/><use xlink:href="#k" transform="matrix(1,0,0,1,574.7375152723887,434.0943674482259) translate(0 19.359722222222224)"/><path d="M570 161.6h280v34H570z" fill="#fff"/><path d="M570 194.6h280v32H570z" fill="#e6e6e6"/><path d="M570 225.6h280v32H570z" fill="#fff"/><path d="M570 256.6h280v36H570z" fill="#e6e6e6"/><path d="M570 291.6h280v33H570z" fill="#fff"/><path d="M570 323.6h280v36H570z" fill="#e6e6e6"/><path d="M570 358.6h280v35H570z" fill="#fff"/><path d="M570 121.6h280v40H570z" fill="#ccc"/><path d="M570 121.6h280v272H570zM570 161.6h280" stroke="#333" fill="none"/><use xlink:href="#l" transform="matrix(1,0,0,1,575,164.10801810009212) translate(0 18.555555555555557)"/><use xlink:href="#m" transform="matrix(1,0,0,1,575,164.10801810009212) translate(4.938271604938272 18.555555555555557)"/><use xlink:href="#n" transform="matrix(1,0,0,1,575,164.10801810009212) translate(88.79012345679013 18.555555555555557)"/><use xlink:href="#l" transform="matrix(1,0,0,1,575,197.10801810009212) translate(0 16.555555555555557)"/><use xlink:href="#o" transform="matrix(1,0,0,1,575,197.10801810009212) translate(4.938271604938272 16.555555555555557)"/><use xlink:href="#l" transform="matrix(1,0,0,1,575,228.10801810009212) translate(0 16.555555555555557)"/><use xlink:href="#p" transform="matrix(1,0,0,1,575,228.10801810009212) translate(4.938271604938272 16.555555555555557)"/><use xlink:href="#q" transform="matrix(1,0,0,1,575,259.1080181000921) translate(5 20.155555555555555)"/><use xlink:href="#b" transform="matrix(1,0,0,1,575,294.1080181000921) translate(0 17.1)"/><use xlink:href="#c" transform="matrix(1,0,0,1,575,294.1080181000921) translate(5 17.1)"/><use xlink:href="#f" transform="matrix(1,0,0,1,575,294.1080181000921) translate(97.9 17.1)"/><use xlink:href="#r" transform="matrix(1,0,0,1,575,326.1080181000921) translate(5 20.155555555555555)"/><use xlink:href="#s" transform="matrix(1,0,0,1,575,326.1080181000921) translate(96.75308641975309 20.155555555555555)"/><use xlink:href="#t" transform="matrix(1,0,0,1,575,361.1080181000921) translate(5 20.155555555555555)"/><use xlink:href="#u" transform="matrix(1,0,0,1,575,361.1080181000921) translate(79.96296296296299 20.155555555555555)"/><path d="M570 121h280v42.6H570z" stroke="#333" fill="#ffb781"/><use xlink:href="#v" transform="matrix(1,0,0,1,574.8,125.8055066544617) translate(0 19.547222222222224)"/><path d="M1048.38 161.6h281.56v33h-281.56z" fill="#fff"/><path d="M1048.38 193.6h281.56v33h-281.56z" fill="#e6e6e6"/><path d="M1048.38 225.6h281.56v33h-281.56z" fill="#fff"/><path d="M1048.38 257.6h281.56v36h-281.56z" fill="#e6e6e6"/><path d="M1048.38 292.6h281.56v36h-281.56z" fill="#fff"/><path d="M1048.38 327.6h281.56v36h-281.56z" fill="#e6e6e6"/><path d="M1048.38 362.6h281.56v36h-281.56z" fill="#fff"/><path d="M1048.38 397.6h281.56v36h-281.56z" fill="#e6e6e6"/><path d="M1048.38 432.6h281.56v35h-281.56z" fill="#fff"/><path d="M1048.38 121.6h281.56v40h-281.56z" fill="#ccc"/><path d="M1048.38 121.6h281.56v346h-281.56zM1048.38 161.6h281.56" stroke="#333" fill="none"/><use xlink:href="#w" transform="matrix(1,0,0,1,1058.3797625627535,121.60801810009218) translate(5 25.15555555555556)"/><use xlink:href="#b" transform="matrix(1,0,0,1,1053.3797625627535,164.10801810009218) translate(0 17.1)"/><use xlink:href="#x" transform="matrix(1,0,0,1,1053.3797625627535,164.10801810009218) translate(5 17.1)"/><use xlink:href="#d" transform="matrix(1,0,0,1,1053.3797625627535,164.10801810009218) translate(113.55 17.1)"/><use xlink:href="#b" transform="matrix(1,0,0,1,1053.3797625627535,196.10801810009218) translate(0 17.1)"/><use xlink:href="#y" transform="matrix(1,0,0,1,1053.3797625627535,196.10801810009218) translate(5 17.1)"/><use xlink:href="#f" transform="matrix(1,0,0,1,1053.3797625627535,196.10801810009218) translate(86.95 17.1)"/><use xlink:href="#b" transform="matrix(1,0,0,1,1053.3797625627535,228.10801810009218) translate(0 17.1)"/><use xlink:href="#z" transform="matrix(1,0,0,1,1053.3797625627535,228.10801810009218) translate(5 17.1)"/><use xlink:href="#f" transform="matrix(1,0,0,1,1053.3797625627535,228.10801810009218) translate(67.95 17.1)"/><use xlink:href="#A" transform="matrix(1,0,0,1,1053.3797625627535,260.1080181000922) translate(5 20.155555555555555)"/><use xlink:href="#B" transform="matrix(1,0,0,1,1053.3797625627535,295.1080181000922) translate(5 20.155555555555555)"/><use xlink:href="#C" transform="matrix(1,0,0,1,1053.3797625627535,330.1080181000922) translate(5 20.155555555555555)"/><use xlink:href="#D" transform="matrix(1,0,0,1,1053.3797625627535,365.1080181000922) translate(5 20.155555555555555)"/><use xlink:href="#E" transform="matrix(1,0,0,1,1053.3797625627535,400.1080181000922) translate(5 20.155555555555555)"/><use xlink:href="#F" transform="matrix(1,0,0,1,1053.3797625627535,435.1080181000922) translate(5 20.155555555555555)"/><path d="M1048.38 121.6h281.56v40h-281.56z" stroke="#333" fill="#ffb781"/><use xlink:href="#G" transform="matrix(1,0,0,1,1053.1797625627535,126.40801810009218) translate(0 19.359722222222224)"/><path d="M1049.76 539.74h280.6v33h-280.6z" fill="#fff"/><path d="M1049.76 571.74h280.6v33h-280.6z" fill="#e6e6e6"/><path d="M1049.76 603.74h280.6v32h-280.6z" fill="#fff"/><path d="M1049.76 634.74h280.6v31h-280.6z" fill="#e6e6e6"/><path d="M1049.76 499.74h280.6v40h-280.6z" fill="#ccc"/><path d="M1049.76 499.74h280.6v166h-280.6zM1049.76 539.74h280.6" stroke="#333" fill="none"/><use xlink:href="#b" transform="matrix(1,0,0,1,1054.7569749041031,542.2444933455382) translate(0 17.1)"/><use xlink:href="#z" transform="matrix(1,0,0,1,1054.7569749041031,542.2444933455382) translate(5 17.1)"/><use xlink:href="#d" transform="matrix(1,0,0,1,1054.7569749041031,542.2444933455382) translate(67.95 17.1)"/><use xlink:href="#b" transform="matrix(1,0,0,1,1054.7569749041031,574.2444933455382) translate(0 17.1)"/><use xlink:href="#H" transform="matrix(1,0,0,1,1054.7569749041031,574.2444933455382) translate(5 17.1)"/><use xlink:href="#f" transform="matrix(1,0,0,1,1054.7569749041031,574.2444933455382) translate(81.95 17.1)"/><use xlink:href="#l" transform="matrix(1,0,0,1,1054.7569749041031,606.2444933455382) translate(0 16.555555555555557)"/><use xlink:href="#I" transform="matrix(1,0,0,1,1054.7569749041031,606.2444933455382) translate(4.938271604938272 16.555555555555557)"/><use xlink:href="#l" transform="matrix(1,0,0,1,1054.7569749041031,637.2444933455382) translate(0 16.555555555555557)"/><use xlink:href="#J" transform="matrix(1,0,0,1,1054.7569749041031,637.2444933455382) translate(4.938271604938272 16.555555555555557)"/><path d="M1049.76 499.74h280.6v40h-280.6z" stroke="#333" fill="#ffb781"/><use xlink:href="#K" transform="matrix(1,0,0,1,1054.556974904103,504.5444933455382) translate(0 19.359722222222224)"/><path d="M568.95 715.4h280v33h-280z" fill="#fff"/><path d="M568.95 747.4h280v33h-280z" fill="#e6e6e6"/><path d="M568.95 779.4h280v33h-280z" fill="#fff"/><path d="M568.95 811.4h280v32h-280z" fill="#e6e6e6"/><path d="M568.95 675.4h280v40h-280z" fill="#ccc"/><path d="M568.95 675.4h280v168h-280zM568.95 715.4h280" stroke="#333" fill="none"/><use xlink:href="#b" transform="matrix(1,0,0,1,573.9468572067933,717.8919818999079) translate(0 17.1)"/><use xlink:href="#e" transform="matrix(1,0,0,1,573.9468572067933,717.8919818999079) translate(5 17.1)"/><use xlink:href="#d" transform="matrix(1,0,0,1,573.9468572067933,717.8919818999079) translate(80.9 17.1)"/><use xlink:href="#L" transform="matrix(1,0,0,1,573.9468572067933,749.8919818999079) translate(0 17.1)"/><use xlink:href="#M" transform="matrix(1,0,0,1,573.9468572067933,749.8919818999079) translate(5 17.1)"/><use xlink:href="#L" transform="matrix(1,0,0,1,573.9468572067933,781.8919818999079) translate(0 17.1)"/><use xlink:href="#N" transform="matrix(1,0,0,1,573.9468572067933,781.8919818999079) translate(5 17.1)"/><use xlink:href="#L" transform="matrix(1,0,0,1,573.9468572067933,813.8919818999079) translate(0 17.1)"/><use xlink:href="#O" transform="matrix(1,0,0,1,573.9468572067933,813.8919818999079) translate(5 17.1)"/><path d="M568.95 675.4h280v40h-280z" stroke="#333" fill="#ffb781"/><use xlink:href="#P" transform="matrix(1,0,0,1,573.746857206833,680.1919818999079) translate(2 19.359722222222224)"/><path d="M90 161h280.62v32H90z" fill="#fff"/><path d="M90 192h280.62v32H90z" fill="#e6e6e6"/><path d="M90 223h280.62v32H90z" fill="#fff"/><path d="M90 254h280.62v32H90z" fill="#e6e6e6"/><path d="M90 285h280.62v31H90z" fill="#fff"/><path d="M90 121h280.62v40H90z" fill="#ccc"/><path d="M90 121h280.62v195H90zM90 161h280.62" stroke="#333" fill="none"/><use xlink:href="#l" transform="matrix(1,0,0,1,95.00000000003979,163.5055066544617) translate(0 16.555555555555557)"/><use xlink:href="#Q" transform="matrix(1,0,0,1,95.00000000003979,163.5055066544617) translate(4.938271604938272 16.555555555555557)"/><use xlink:href="#R" transform="matrix(1,0,0,1,95.00000000003979,163.5055066544617) translate(96.69135802469137 16.555555555555557)"/><use xlink:href="#l" transform="matrix(1,0,0,1,95.00000000003979,194.5055066544617) translate(0 16.555555555555557)"/><use xlink:href="#S" transform="matrix(1,0,0,1,95.00000000003979,194.5055066544617) translate(4.938271604938272 16.555555555555557)"/><use xlink:href="#T" transform="matrix(1,0,0,1,95.00000000003979,194.5055066544617) translate(57.18518518518519 16.555555555555557)"/><use xlink:href="#l" transform="matrix(1,0,0,1,95.00000000003979,225.5055066544617) translate(0 16.555555555555557)"/><use xlink:href="#S" transform="matrix(1,0,0,1,95.00000000003979,225.5055066544617) translate(4.938271604938272 16.555555555555557)"/><use xlink:href="#U" transform="matrix(1,0,0,1,95.00000000003979,225.5055066544617) translate(57.18518518518519 16.555555555555557)"/><use xlink:href="#l" transform="matrix(1,0,0,1,95.00000000003979,256.50550665446167) translate(0 16.555555555555557)"/><use xlink:href="#S" transform="matrix(1,0,0,1,95.00000000003979,256.50550665446167) translate(4.938271604938272 16.555555555555557)"/><use xlink:href="#V" transform="matrix(1,0,0,1,95.00000000003979,256.50550665446167) translate(57.18518518518519 16.555555555555557)"/><use xlink:href="#l" transform="matrix(1,0,0,1,95.00000000003979,287.50550665446167) translate(0 16.555555555555557)"/><use xlink:href="#W" transform="matrix(1,0,0,1,95.00000000003979,287.50550665446167) translate(4.938271604938272 16.555555555555557)"/><use xlink:href="#u" transform="matrix(1,0,0,1,95.00000000003979,287.50550665446167) translate(134.17283950617286 16.555555555555557)"/><path d="M90 121h280.62v40H90z" stroke="#333" fill="#ffb781"/><use xlink:href="#X" transform="matrix(1,0,0,1,94.80000000003979,125.8055066544617) translate(0 19.359722222222224)"/><path d="M272.82 48c0-4.42 3.58-8 8-8h836.74c4.42 0 8 3.58 8 8v25.16c0 4.4-3.58 8-8 8H280.82c-4.42 0-8-3.6-8-8z" stroke="#000" stroke-opacity="0" stroke-width="2" fill="#fff" fill-opacity="0"/><use xlink:href="#Y" transform="matrix(1,0,0,1,276.81512704731927,43.999999999999986) translate(325.47358024691357 25.782777777777778)"/><use xlink:href="#Z" transform="matrix(1,0,0,1,276.81512704731927,43.999999999999986) translate(449.0822222222222 25.782777777777778)"/><path d="M549.3 79.8h309.36M549.32 79.8h-1.02M858.63 79.8h1.03" stroke="#a9afb8" stroke-width="2" fill="none"/><path d="M272.82 89.16c0-4.42 3.58-8 8-8h837.7c4.42 0 8 3.58 8 8V92c0 4.42-3.58 8-8 8h-837.7c-4.42 0-8-3.58-8-8z" stroke="#000" stroke-opacity="0" stroke-width="2" fill="#fff" fill-opacity="0"/><path d="M569 341.1H442c-6.63 0-12-5.36-12-12V188.5c0-6.62-5.37-12-12-12h-46.38" stroke="#333" fill="none"/><path d="M569.5 341.6h-.5v-1h.5zM371.63 177h-.5v-1h.5z" fill="#333"/><path d="M90.62 584.7h280v33h-280z" fill="#fff"/><path d="M90.62 616.7h280v33h-280z" fill="#e6e6e6"/><path d="M90.62 648.7h280v32h-280z" fill="#fff"/><path d="M90.62 544.7h280v40h-280z" fill="#ccc"/><path d="M90.62 544.7h280v136h-280zM90.62 584.7h280" stroke="#333" fill="none"/><use xlink:href="#L" transform="matrix(1,0,0,1,95.6156275206871,587.1910794527892) translate(0 17.1)"/><use xlink:href="#aa" transform="matrix(1,0,0,1,95.6156275206871,587.1910794527892) translate(5 17.1)"/><use xlink:href="#ab" transform="matrix(1,0,0,1,95.6156275206871,587.1910794527892) translate(76.9 17.1)"/><use xlink:href="#L" transform="matrix(1,0,0,1,95.6156275206871,619.1910794527892) translate(0 17.1)"/><use xlink:href="#ac" transform="matrix(1,0,0,1,95.6156275206871,619.1910794527892) translate(5 17.1)"/><use xlink:href="#L" transform="matrix(1,0,0,1,95.6156275206871,651.1910794527892) translate(0 17.1)"/><use xlink:href="#ad" transform="matrix(1,0,0,1,95.6156275206871,651.1910794527892) translate(5 17.1)"/><use xlink:href="#ae" transform="matrix(1,0,0,1,95.6156275206871,651.1910794527892) translate(97.9 17.1)"/><path d="M90.62 544.7h280v40h-280z" stroke="#333" fill="#ffb781"/><use xlink:href="#af" transform="matrix(1,0,0,1,95.41562752072689,549.4910794527891) translate(2 19.359722222222224)"/><path d="M569 376.1h-28.55c-6.63 0-12 5.38-12 12v331.2c0 6.62 5.37 12 12 12h27.5" stroke="#333" fill="none"/><path d="M569.5 376.6h-.5v-1h.5zM568.45 731.8h-.52v-1h.52z" fill="#333"/><path d="M1047.38 209.6h-86.2c-6.62 0-12-5.36-12-12v-7.5c0-6.62-5.36-12-12-12H851" stroke="#333" fill="none"/><path d="M1047.88 210.1h-.5v-1h.5zM851 178.6h-.5v-1h.5z" fill="#333"/><path d="M570 900h281.86v33H570z" fill="#fff"/><path d="M570 932h281.86v36H570z" fill="#e6e6e6"/><path d="M570 967h281.86v36H570z" fill="#fff"/><path d="M570 1002h281.86v32H570z" fill="#e6e6e6"/><path d="M570 860h281.86v40H570z" fill="#ccc"/><path d="M570 860h281.86v174H570zM570 900h281.86" stroke="#333" fill="none"/><use xlink:href="#a" transform="matrix(1,0,0,1,580,860) translate(5 25.15555555555556)"/><use xlink:href="#b" transform="matrix(1,0,0,1,575,902.5) translate(0 17.1)"/><use xlink:href="#ag" transform="matrix(1,0,0,1,575,902.5) translate(5 17.1)"/><use xlink:href="#d" transform="matrix(1,0,0,1,575,902.5) translate(81.95 17.1)"/><use xlink:href="#g" transform="matrix(1,0,0,1,575,934.5) translate(5 20.155555555555555)"/><use xlink:href="#h" transform="matrix(1,0,0,1,575,969.5) translate(5 20.155555555555555)"/><use xlink:href="#b" transform="matrix(1,0,0,1,575,1004.5) translate(0 17.1)"/><use xlink:href="#ah" transform="matrix(1,0,0,1,575,1004.5) translate(5 17.1)"/><use xlink:href="#f" transform="matrix(1,0,0,1,575,1004.5) translate(65.9 17.1)"/><path d="M570 860h281.86v40H570z" stroke="#333" fill="#ffb781"/><use xlink:href="#ai" transform="matrix(1,0,0,1,574.8,864.8) translate(0 19.359722222222224)"/><path d="M1047.38 241.6h-54.94c-6.63 0-12 5.38-12 12v290.14c0 6.63 5.37 12 12 12h56.32" stroke="#333" fill="none"/><path d="M1047.88 242.1h-.5v-1h.5zM1049.26 556.24h-.52v-1h.52z" fill="#333"/><path d="M1048.76 587.74H962c-6.63 0-12 5.38-12 12V903.9c0 6.62-5.37 12-12 12h-85.14" stroke="#333" fill="none"/><path d="M1049.26 588.24h-.52v-1h.52zM852.87 916.4h-.5v-1h.5z" fill="#333"/><path d="M851 307.6h37c6.63 0 12 5.38 12 12v153.7c0 6.62-5.37 12-12 12h-35.2" stroke="#333" fill="none"/><path d="M851 308.1h-.5v-1h.5zM852.8 485.8h-.5v-1h.5z" fill="#333"/><path d="M568.94 485.3H502c-6.63 0-12 5.37-12 12v155.4c0 6.62-5.37 12-12 12H371.62" stroke="#333" fill="none"/><path d="M569.44 485.8h-.52v-1h.52zM371.63 665.2h-.5v-1h.5z" fill="#333"/><path d="M852.86 1018.25h27.5c6.63 0 12-5.37 12-12V920.9c-2.76 0-5-2.25-5-5 0-2.77 2.24-5 5-5V743.3c0-6.64-5.37-12-12-12h-30.4" stroke="#333" fill="none"/><path d="M852.87 1018.75h-.5v-1h.5zM849.96 731.8h-.5v-1h.5z" fill="#333"/><path d="M90 394.8h280v33H90z" fill="#fff"/><path d="M90 426.8h280v33H90z" fill="#e6e6e6"/><path d="M90 458.8h280v32H90z" fill="#fff"/><path d="M90 354.8h280v40H90z" fill="#ccc"/><path d="M90 354.8h280v136H90zM90 394.8h280" stroke="#333" fill="none"/><g><use xlink:href="#L" transform="matrix(1,0,0,1,95.00000000003979,397.29564801087) translate(0 17.1)"/><use xlink:href="#aa" transform="matrix(1,0,0,1,95.00000000003979,397.29564801087) translate(5 17.1)"/><use xlink:href="#ab" transform="matrix(1,0,0,1,95.00000000003979,397.29564801087) translate(76.9 17.1)"/></g><g><use xlink:href="#L" transform="matrix(1,0,0,1,95.00000000003979,429.29564801087) translate(0 17.1)"/><use xlink:href="#ac" transform="matrix(1,0,0,1,95.00000000003979,429.29564801087) translate(5 17.1)"/></g><g><use xlink:href="#L" transform="matrix(1,0,0,1,95.00000000003979,461.29564801087) translate(0 17.1)"/><use xlink:href="#aj" transform="matrix(1,0,0,1,95.00000000003979,461.29564801087) translate(5 17.1)"/><use xlink:href="#ae" transform="matrix(1,0,0,1,95.00000000003979,461.29564801087) translate(86.95 17.1)"/></g><path d="M90 354.8h280v40H90z" stroke="#333" fill="#ffb781"/><g><use xlink:href="#ak" transform="matrix(1,0,0,1,94.80000000007958,359.59564801087004) translate(2 19.359722222222224)"/></g><path d="M569 178.1h-68.12c-6.62 0-12 5.38-12 12V463c0 6.63-5.37 12-12 12H371" stroke="#333" fill="none"/><path d="M569.5 178.6h-.5v-1h.5zM371 475.48h-.5v-1h.5z" fill="#333"/><path d="M90.62 835.8h280v33h-280z" fill="#fff"/><path d="M90.62 867.8h280v33h-280z" fill="#e6e6e6"/><path d="M90.62 899.8h280v32h-280z" fill="#fff"/><path d="M90.62 795.8h280v40h-280z" fill="#ccc"/><path d="M90.62 795.8h280v136h-280zM90.62 835.8h280" stroke="#333" fill="none"/><g><use xlink:href="#L" transform="matrix(1,0,0,1,95.61562752072689,838.3142857142751) translate(0 17.1)"/><use xlink:href="#aa" transform="matrix(1,0,0,1,95.61562752072689,838.3142857142751) translate(5 17.1)"/><use xlink:href="#ab" transform="matrix(1,0,0,1,95.61562752072689,838.3142857142751) translate(76.9 17.1)"/></g><g><use xlink:href="#L" transform="matrix(1,0,0,1,95.61562752072689,870.3142857142751) translate(0 17.1)"/><use xlink:href="#ac" transform="matrix(1,0,0,1,95.61562752072689,870.3142857142751) translate(5 17.1)"/></g><g><use xlink:href="#L" transform="matrix(1,0,0,1,95.61562752072689,902.3142857142751) translate(0 17.1)"/><use xlink:href="#al" transform="matrix(1,0,0,1,95.61562752072689,902.3142857142751) translate(5 17.1)"/><use xlink:href="#ae" transform="matrix(1,0,0,1,95.61562752072689,902.3142857142751) translate(81.95 17.1)"/></g><path d="M90.62 795.8h280v40h-280z" stroke="#333" fill="#ffb781"/><g><use xlink:href="#am" transform="matrix(1,0,0,1,95.41562752076668,800.6142857142751) translate(2 19.359722222222224)"/></g><path d="M569 916H371.62" stroke="#333" fill="none"/><path d="M569.5 916.5h-.5v-1h.5zM371.63 916.5h-.5v-1h.5z" fill="#333"/><path d="M1051.12 767.65h280v33h-280z" fill="#fff"/><path d="M1051.12 799.65h280v33h-280z" fill="#e6e6e6"/><path d="M1051.12 831.65h280v32h-280z" fill="#fff"/><path d="M1051.12 727.65h280v40h-280z" fill="#ccc"/><path d="M1051.12 727.65h280v136h-280zM1051.12 767.65h280" stroke="#333" fill="none"/><g><use xlink:href="#L" transform="matrix(1,0,0,1,1056.118054619185,770.1474885543697) translate(0 17.1)"/><use xlink:href="#aa" transform="matrix(1,0,0,1,1056.118054619185,770.1474885543697) translate(5 17.1)"/><use xlink:href="#ab" transform="matrix(1,0,0,1,1056.118054619185,770.1474885543697) translate(76.9 17.1)"/></g><g><use xlink:href="#L" transform="matrix(1,0,0,1,1056.118054619185,802.1474885543697) translate(0 17.1)"/><use xlink:href="#ac" transform="matrix(1,0,0,1,1056.118054619185,802.1474885543697) translate(5 17.1)"/></g><g><use xlink:href="#L" transform="matrix(1,0,0,1,1056.118054619185,834.1474885543697) translate(0 17.1)"/><use xlink:href="#an" transform="matrix(1,0,0,1,1056.118054619185,834.1474885543697) translate(5 17.1)"/><use xlink:href="#ae" transform="matrix(1,0,0,1,1056.118054619185,834.1474885543697) translate(72.95 17.1)"/></g><path d="M1051.12 727.65h280v40h-280z" stroke="#333" fill="#ffb781"/><g><use xlink:href="#ao" transform="matrix(1,0,0,1,1055.9180546192244,732.4474885543697) translate(2 19.359722222222224)"/></g><path d="M1331.37 555.74h15.52c6.62 0 12 5.38 12 12v267.9c0 6.63-5.38 12-12 12h-14.78" stroke="#333" fill="none"/><path d="M1331.4 556.24h-.53v-1h.52zM1332.13 848.15h-.5v-1h.5z" fill="#333"/><path d="M852.8 517.24H878c6.63 0 12 5.37 12 12V719.3c0 6.62-5.37 12-12 12h-28.05" stroke="#333" fill="none"/><path d="M852.8 517.74h-.5v-1h.5zM849.96 731.8h-.5v-1h.5z" fill="#333"/><defs><path fill="#333" d="M30-248c118-7 216 8 213 122C240-48 200 0 122 0H30v-248zM63-27c89 8 146-16 146-99s-60-101-146-95v194" id="ap"/><path fill="#333" d="M100-194c63 0 86 42 84 106H49c0 40 14 67 53 68 26 1 43-12 49-29l28 8c-11 28-37 45-77 45C44 4 14-33 15-96c1-61 26-98 85-98zm52 81c6-60-76-77-97-28-3 7-6 17-6 28h103" id="aq"/><path fill="#333" d="M24 0v-261h32V0H24" id="ar"/><path fill="#333" d="M24-231v-30h32v30H24zM24 0v-190h32V0H24" id="as"/><path fill="#333" d="M108 0H70L1-190h34L89-25l56-165h34" id="at"/><path fill="#333" d="M114-163C36-179 61-72 57 0H25l-1-190h30c1 12-1 29 2 39 6-27 23-49 58-41v29" id="au"/><path fill="#333" d="M179-190L93 31C79 59 56 82 12 73V49c39 6 53-20 64-50L1-190h34L92-34l54-156h33" id="av"/><g id="a"><use transform="matrix(0.04938271604938272,0,0,0.04938271604938272,0,0)" xlink:href="#ap"/><use transform="matrix(0.04938271604938272,0,0,0.04938271604938272,12.790123456790125,0)" xlink:href="#aq"/><use transform="matrix(0.04938271604938272,0,0,0.04938271604938272,22.66666666666667,0)" xlink:href="#ar"/><use transform="matrix(0.04938271604938272,0,0,0.04938271604938272,26.567901234567902,0)" xlink:href="#as"/><use transform="matrix(0.04938271604938272,0,0,0.04938271604938272,30.46913580246914,0)" xlink:href="#at"/><use transform="matrix(0.04938271604938272,0,0,0.04938271604938272,39.358024691358025,0)" xlink:href="#aq"/><use transform="matrix(0.04938271604938272,0,0,0.04938271604938272,49.23456790123457,0)" xlink:href="#au"/><use transform="matrix(0.04938271604938272,0,0,0.04938271604938272,55.111111111111114,0)" xlink:href="#av"/></g><path d="M30-248c87 1 191-15 191 75 0 78-77 80-158 76V0H30v-248zm33 125c57 0 124 11 124-50 0-59-68-47-124-48v98" id="aw"/><path d="M114-163C36-179 61-72 57 0H25l-1-190h30c1 12-1 29 2 39 6-27 23-49 58-41v29" id="ax"/><path d="M100-194c62-1 85 37 85 99 1 63-27 99-86 99S16-35 15-95c0-66 28-99 85-99zM99-20c44 1 53-31 53-75 0-43-8-75-51-75s-53 32-53 75 10 74 51 75" id="ay"/><path d="M85-194c31 0 48 13 60 33l-1-100h32l1 261h-30c-2-10 0-23-3-31C134-8 116 4 85 4 32 4 16-35 15-94c0-66 23-100 70-100zm9 24c-40 0-46 34-46 75 0 40 6 74 45 74 42 0 51-32 51-76 0-42-9-74-50-73" id="az"/><path d="M84 4C-5 8 30-112 23-190h32v120c0 31 7 50 39 49 72-2 45-101 50-169h31l1 190h-30c-1-10 1-25-2-33-11 22-28 36-60 37" id="aA"/><path d="M96-169c-40 0-48 33-48 73s9 75 48 75c24 0 41-14 43-38l32 2c-6 37-31 61-74 61-59 0-76-41-82-99-10-93 101-131 147-64 4 7 5 14 7 22l-32 3c-4-21-16-35-41-35" id="aB"/><path d="M100-194c63 0 86 42 84 106H49c0 40 14 67 53 68 26 1 43-12 49-29l28 8c-11 28-37 45-77 45C44 4 14-33 15-96c1-61 26-98 85-98zm52 81c6-60-76-77-97-28-3 7-6 17-6 28h103" id="aC"/><path d="M33 0v-248h34V0H33" id="aD"/><g id="c"><use transform="matrix(0.05,0,0,0.05,0,0)" xlink:href="#aw"/><use transform="matrix(0.05,0,0,0.05,12,0)" xlink:href="#ax"/><use transform="matrix(0.05,0,0,0.05,17.95,0)" xlink:href="#ay"/><use transform="matrix(0.05,0,0,0.05,27.950000000000003,0)" xlink:href="#az"/><use transform="matrix(0.05,0,0,0.05,37.95,0)" xlink:href="#aA"/><use transform="matrix(0.05,0,0,0.05,47.95,0)" xlink:href="#aB"/><use transform="matrix(0.05,0,0,0.05,56.95,0)" xlink:href="#aC"/><use transform="matrix(0.05,0,0,0.05,66.95,0)" xlink:href="#ax"/><use transform="matrix(0.05,0,0,0.05,72.9,0)" xlink:href="#aD"/><use transform="matrix(0.05,0,0,0.05,77.9,0)" xlink:href="#az"/></g><path d="M18-100v-36l175-74v27L42-118l151 64v27" id="aE"/><path d="M194 0L95-120 63-95V0H30v-248h33v124l119-124h40L117-140 236 0h-42" id="aF"/><path d="M18-27v-27l151-64-151-65v-27l175 74v36" id="aG"/><g id="d"><use transform="matrix(0.05,0,0,0.05,0,0)" xlink:href="#aE"/><use transform="matrix(0.05,0,0,0.05,10.5,0)" xlink:href="#aw"/><use transform="matrix(0.05,0,0,0.05,22.5,0)" xlink:href="#aF"/><use transform="matrix(0.05,0,0,0.05,34.5,0)" xlink:href="#aG"/></g><path d="M24-231v-30h32v30H24zM24 0v-190h32V0H24" id="aH"/><path d="M59-47c-2 24 18 29 38 22v24C64 9 27 4 27-40v-127H5v-23h24l9-43h21v43h35v23H59v120" id="aI"/><g id="e"><use transform="matrix(0.05,0,0,0.05,0,0)" xlink:href="#aw"/><use transform="matrix(0.05,0,0,0.05,12,0)" xlink:href="#aH"/><use transform="matrix(0.05,0,0,0.05,15.949999999999998,0)" xlink:href="#aB"/><use transform="matrix(0.05,0,0,0.05,24.95,0)" xlink:href="#aI"/><use transform="matrix(0.05,0,0,0.05,29.950000000000003,0)" xlink:href="#aA"/><use transform="matrix(0.05,0,0,0.05,39.95,0)" xlink:href="#ax"/><use transform="matrix(0.05,0,0,0.05,45.900000000000006,0)" xlink:href="#aC"/><use transform="matrix(0.05,0,0,0.05,55.900000000000006,0)" xlink:href="#aD"/><use transform="matrix(0.05,0,0,0.05,60.900000000000006,0)" xlink:href="#az"/></g><path d="M63-220v92h138v28H63V0H30v-248h175v28H63" id="aJ"/><g id="f"><use transform="matrix(0.05,0,0,0.05,0,0)" xlink:href="#aE"/><use transform="matrix(0.05,0,0,0.05,10.5,0)" xlink:href="#aJ"/><use transform="matrix(0.05,0,0,0.05,21.450000000000003,0)" xlink:href="#aF"/><use transform="matrix(0.05,0,0,0.05,33.45,0)" xlink:href="#aG"/></g><path d="M190 0L58-211 59 0H30v-248h39L202-35l-2-213h31V0h-41" id="aK"/><path d="M141-36C126-15 110 5 73 4 37 3 15-17 15-53c-1-64 63-63 125-63 3-35-9-54-41-54-24 1-41 7-42 31l-33-3c5-37 33-52 76-52 45 0 72 20 72 64v82c-1 20 7 32 28 27v20c-31 9-61-2-59-35zM48-53c0 20 12 33 32 33 41-3 63-29 60-74-43 2-92-5-92 41" id="aL"/><path d="M210-169c-67 3-38 105-44 169h-31v-121c0-29-5-50-35-48C34-165 62-65 56 0H25l-1-190h30c1 10-1 24 2 32 10-44 99-50 107 0 11-21 27-35 58-36 85-2 47 119 55 194h-31v-121c0-29-5-49-35-48" id="aM"/><g id="g"><use transform="matrix(0.04938271604938272,0,0,0.04938271604938272,0,0)" xlink:href="#aK"/><use transform="matrix(0.04938271604938272,0,0,0.04938271604938272,12.790123456790125,0)" xlink:href="#aL"/><use transform="matrix(0.04938271604938272,0,0,0.04938271604938272,22.66666666666667,0)" xlink:href="#aM"/><use transform="matrix(0.04938271604938272,0,0,0.04938271604938272,37.4320987654321,0)" xlink:href="#aC"/></g><path d="M30-248c118-7 216 8 213 122C240-48 200 0 122 0H30v-248zM63-27c89 8 146-16 146-99s-60-101-146-95v194" id="aN"/><path d="M212-179c-10-28-35-45-73-45-59 0-87 40-87 99 0 60 29 101 89 101 43 0 62-24 78-52l27 14C228-24 195 4 139 4 59 4 22-46 18-125c-6-104 99-153 187-111 19 9 31 26 39 46" id="aO"/><g id="h"><use transform="matrix(0.04938271604938272,0,0,0.04938271604938272,0,0)" xlink:href="#aN"/><use transform="matrix(0.04938271604938272,0,0,0.04938271604938272,12.790123456790125,0)" xlink:href="#aD"/><use transform="matrix(0.04938271604938272,0,0,0.04938271604938272,17.7283950617284,0)" xlink:href="#aO"/></g><path d="M117-194c89-4 53 116 60 194h-32v-121c0-31-8-49-39-48C34-167 62-67 57 0H25l-1-190h30c1 10-1 24 2 32 11-22 29-35 61-36" id="aP"/><path d="M115-194c55 1 70 41 70 98S169 2 115 4C84 4 66-9 55-30l1 105H24l-1-265h31l2 30c10-21 28-34 59-34zm-8 174c40 0 45-34 45-75s-6-73-45-74c-42 0-51 32-51 76 0 43 10 73 51 73" id="aQ"/><path d="M179-190L93 31C79 59 56 82 12 73V49c39 6 53-20 64-50L1-190h34L92-34l54-156h33" id="aR"/><g id="j"><use transform="matrix(0.04938271604938272,0,0,0.04938271604938272,0,0)" xlink:href="#aw"/><use transform="matrix(0.04938271604938272,0,0,0.04938271604938272,11.851851851851853,0)" xlink:href="#ax"/><use transform="matrix(0.04938271604938272,0,0,0.04938271604938272,17.728395061728396,0)" xlink:href="#ay"/><use transform="matrix(0.04938271604938272,0,0,0.04938271604938272,27.60493827160494,0)" xlink:href="#az"/><use transform="matrix(0.04938271604938272,0,0,0.04938271604938272,37.48148148148148,0)" xlink:href="#aA"/><use transform="matrix(0.04938271604938272,0,0,0.04938271604938272,47.358024691358025,0)" xlink:href="#aB"/><use transform="matrix(0.04938271604938272,0,0,0.04938271604938272,56.246913580246904,0)" xlink:href="#aI"/><use transform="matrix(0.04938271604938272,0,0,0.04938271604938272,61.185185185185176,0)" xlink:href="#aH"/><use transform="matrix(0.04938271604938272,0,0,0.04938271604938272,65.08641975308642,0)" xlink:href="#ay"/><use transform="matrix(0.04938271604938272,0,0,0.04938271604938272,74.96296296296296,0)" xlink:href="#aP"/><use transform="matrix(0.04938271604938272,0,0,0.04938271604938272,84.8395061728395,0)" xlink:href="#aO"/><use transform="matrix(0.04938271604938272,0,0,0.04938271604938272,97.62962962962963,0)" xlink:href="#aL"/><use transform="matrix(0.04938271604938272,0,0,0.04938271604938272,107.50617283950618,0)" xlink:href="#aQ"/><use transform="matrix(0.04938271604938272,0,0,0.04938271604938272,117.38271604938272,0)" xlink:href="#aL"/><use transform="matrix(0.04938271604938272,0,0,0.04938271604938272,127.25925925925927,0)" xlink:href="#aB"/><use transform="matrix(0.04938271604938272,0,0,0.04938271604938272,136.14814814814815,0)" xlink:href="#aH"/><use transform="matrix(0.04938271604938272,0,0,0.04938271604938272,140.0493827160494,0)" xlink:href="#aI"/><use transform="matrix(0.04938271604938272,0,0,0.04938271604938272,144.98765432098767,0)" xlink:href="#aR"/></g><path d="M88-194c31-1 46 15 58 34l-1-101h50l1 261h-48c-2-10 0-23-3-31C134-8 116 4 84 4 32 4 16-41 15-95c0-56 19-97 73-99zm17 164c33 0 40-30 41-66 1-37-9-64-41-64s-38 30-39 65c0 43 13 65 39 65" id="aS"/><path d="M133-34C117-15 103 5 69 4 32 3 11-16 11-54c-1-60 55-63 116-61 1-26-3-47-28-47-18 1-26 9-28 27l-52-2c7-38 36-58 82-57s74 22 75 68l1 82c-1 14 12 18 25 15v27c-30 8-71 5-69-32zm-48 3c29 0 43-24 42-57-32 0-66-3-65 30 0 17 8 27 23 27" id="aT"/><path d="M115-3C79 11 28 4 28-45v-112H4v-33h27l15-45h31v45h36v33H77v99c-1 23 16 31 38 25v30" id="aU"/><path d="M14-72v-43h91v43H14" id="aV"/><path d="M138-131c27 9 52 24 51 61 0 53-36 74-89 74S11-19 11-69c0-35 22-54 51-61-78-25-46-121 38-121 51 0 83 19 83 66 0 30-18 49-45 54zm-38-16c24 0 32-13 32-36 1-23-11-34-32-34-22 0-33 12-32 34 0 22 9 36 32 36zm1 116c27 0 37-17 37-43 0-25-13-39-39-39-24 0-37 15-37 40 0 27 11 42 39 42" id="aW"/><g id="k"><use transform="matrix(0.04938271604938272,0,0,0.04938271604938272,0,0)" xlink:href="#aS"/><use transform="matrix(0.04938271604938272,0,0,0.04938271604938272,10.814814814814815,0)" xlink:href="#aT"/><use transform="matrix(0.04938271604938272,0,0,0.04938271604938272,20.69135802469136,0)" xlink:href="#aU"/><use transform="matrix(0.04938271604938272,0,0,0.04938271604938272,26.567901234567902,0)" xlink:href="#aT"/><use transform="matrix(0.04938271604938272,0,0,0.04938271604938272,36.44444444444445,0)" xlink:href="#aV"/><use transform="matrix(0.04938271604938272,0,0,0.04938271604938272,42.320987654320994,0)" xlink:href="#aW"/></g><g id="m"><use transform="matrix(0.04938271604938272,0,0,0.04938271604938272,0,0)" xlink:href="#aw"/><use transform="matrix(0.04938271604938272,0,0,0.04938271604938272,11.851851851851853,0)" xlink:href="#ax"/><use transform="matrix(0.04938271604938272,0,0,0.04938271604938272,17.728395061728396,0)" xlink:href="#ay"/><use transform="matrix(0.04938271604938272,0,0,0.04938271604938272,27.60493827160494,0)" xlink:href="#az"/><use transform="matrix(0.04938271604938272,0,0,0.04938271604938272,37.48148148148148,0)" xlink:href="#aA"/><use transform="matrix(0.04938271604938272,0,0,0.04938271604938272,47.358024691358025,0)" xlink:href="#aB"/><use transform="matrix(0.04938271604938272,0,0,0.04938271604938272,56.246913580246904,0)" xlink:href="#aI"/><use transform="matrix(0.04938271604938272,0,0,0.04938271604938272,61.185185185185176,0)" xlink:href="#aD"/><use transform="matrix(0.04938271604938272,0,0,0.04938271604938272,66.12345679012346,0)" xlink:href="#aN"/></g><g id="n"><use transform="matrix(0.04938271604938272,0,0,0.04938271604938272,0,0)" xlink:href="#aE"/><use transform="matrix(0.04938271604938272,0,0,0.04938271604938272,10.370370370370372,0)" xlink:href="#aw"/><use transform="matrix(0.04938271604938272,0,0,0.04938271604938272,22.222222222222225,0)" xlink:href="#aF"/><use transform="matrix(0.04938271604938272,0,0,0.04938271604938272,34.074074074074076,0)" xlink:href="#aG"/></g><g id="o"><use transform="matrix(0.04938271604938272,0,0,0.04938271604938272,0,0)" xlink:href="#aK"/><use transform="matrix(0.04938271604938272,0,0,0.04938271604938272,12.790123456790125,0)" xlink:href="#aL"/><use transform="matrix(0.04938271604938272,0,0,0.04938271604938272,22.66666666666667,0)" xlink:href="#aM"/><use transform="matrix(0.04938271604938272,0,0,0.04938271604938272,37.4320987654321,0)" xlink:href="#aC"/></g><path d="M30 0v-248h187v28H63v79h144v27H63v87h162V0H30" id="aX"/><path d="M205 0l-28-72H64L36 0H1l101-248h38L239 0h-34zm-38-99l-47-123c-12 45-31 82-46 123h93" id="aY"/><g id="p"><use transform="matrix(0.04938271604938272,0,0,0.04938271604938272,0,0)" xlink:href="#aX"/><use transform="matrix(0.04938271604938272,0,0,0.04938271604938272,11.851851851851853,0)" xlink:href="#aY"/><use transform="matrix(0.04938271604938272,0,0,0.04938271604938272,23.703703703703706,0)" xlink:href="#aK"/></g><path d="M135-143c-3-34-86-38-87 0 15 53 115 12 119 90S17 21 10-45l28-5c4 36 97 45 98 0-10-56-113-15-118-90-4-57 82-63 122-42 12 7 21 19 24 35" id="aZ"/><g id="q"><use transform="matrix(0.04938271604938272,0,0,0.04938271604938272,0,0)" xlink:href="#aN"/><use transform="matrix(0.04938271604938272,0,0,0.04938271604938272,12.790123456790125,0)" xlink:href="#aC"/><use transform="matrix(0.04938271604938272,0,0,0.04938271604938272,22.66666666666667,0)" xlink:href="#aZ"/><use transform="matrix(0.04938271604938272,0,0,0.04938271604938272,31.555555555555557,0)" xlink:href="#aB"/><use transform="matrix(0.04938271604938272,0,0,0.04938271604938272,40.44444444444445,0)" xlink:href="#ax"/><use transform="matrix(0.04938271604938272,0,0,0.04938271604938272,46.320987654320994,0)" xlink:href="#aH"/><use transform="matrix(0.04938271604938272,0,0,0.04938271604938272,50.22222222222223,0)" xlink:href="#aQ"/><use transform="matrix(0.04938271604938272,0,0,0.04938271604938272,60.09876543209877,0)" xlink:href="#aI"/><use transform="matrix(0.04938271604938272,0,0,0.04938271604938272,65.03703703703704,0)" xlink:href="#aH"/><use transform="matrix(0.04938271604938272,0,0,0.04938271604938272,68.93827160493828,0)" xlink:href="#ay"/><use transform="matrix(0.04938271604938272,0,0,0.04938271604938272,78.81481481481482,0)" xlink:href="#aP"/></g><path d="M177-190C167-65 218 103 67 71c-23-6-38-20-44-43l32-5c15 47 100 32 89-28v-30C133-14 115 1 83 1 29 1 15-40 15-95c0-56 16-97 71-98 29-1 48 16 59 35 1-10 0-23 2-32h30zM94-22c36 0 50-32 50-73 0-42-14-75-50-75-39 0-46 34-46 75s6 73 46 73" id="ba"/><g id="r"><use transform="matrix(0.04938271604938272,0,0,0.04938271604938272,0,0)" xlink:href="#aO"/><use transform="matrix(0.04938271604938272,0,0,0.04938271604938272,12.790123456790125,0)" xlink:href="#aL"/><use transform="matrix(0.04938271604938272,0,0,0.04938271604938272,22.66666666666667,0)" xlink:href="#aI"/><use transform="matrix(0.04938271604938272,0,0,0.04938271604938272,27.604938271604947,0)" xlink:href="#aC"/><use transform="matrix(0.04938271604938272,0,0,0.04938271604938272,37.48148148148149,0)" xlink:href="#ba"/><use transform="matrix(0.04938271604938272,0,0,0.04938271604938272,47.35802469135803,0)" xlink:href="#ay"/><use transform="matrix(0.04938271604938272,0,0,0.04938271604938272,57.23456790123457,0)" xlink:href="#ax"/><use transform="matrix(0.04938271604938272,0,0,0.04938271604938272,63.111111111111114,0)" xlink:href="#aR"/><use transform="matrix(0.04938271604938272,0,0,0.04938271604938272,72.00000000000001,0)" xlink:href="#aD"/><use transform="matrix(0.04938271604938272,0,0,0.04938271604938272,76.93827160493828,0)" xlink:href="#az"/></g><g id="s"><use transform="matrix(0.04938271604938272,0,0,0.04938271604938272,0,0)" xlink:href="#aE"/><use transform="matrix(0.04938271604938272,0,0,0.04938271604938272,10.370370370370372,0)" xlink:href="#aJ"/><use transform="matrix(0.04938271604938272,0,0,0.04938271604938272,21.185185185185187,0)" xlink:href="#aF"/><use transform="matrix(0.04938271604938272,0,0,0.04938271604938272,33.03703703703704,0)" xlink:href="#aG"/></g><g id="t"><use transform="matrix(0.04938271604938272,0,0,0.04938271604938272,0,0)" xlink:href="#aw"/><use transform="matrix(0.04938271604938272,0,0,0.04938271604938272,11.851851851851853,0)" xlink:href="#aH"/><use transform="matrix(0.04938271604938272,0,0,0.04938271604938272,15.753086419753087,0)" xlink:href="#aB"/><use transform="matrix(0.04938271604938272,0,0,0.04938271604938272,24.641975308641978,0)" xlink:href="#aI"/><use transform="matrix(0.04938271604938272,0,0,0.04938271604938272,29.58024691358025,0)" xlink:href="#aA"/><use transform="matrix(0.04938271604938272,0,0,0.04938271604938272,39.4567901234568,0)" xlink:href="#ax"/><use transform="matrix(0.04938271604938272,0,0,0.04938271604938272,45.33333333333334,0)" xlink:href="#aC"/><use transform="matrix(0.04938271604938272,0,0,0.04938271604938272,55.209876543209894,0)" xlink:href="#aD"/><use transform="matrix(0.04938271604938272,0,0,0.04938271604938272,60.14814814814817,0)" xlink:href="#az"/></g><g id="u"><use transform="matrix(0.04938271604938272,0,0,0.04938271604938272,0,0)" xlink:href="#aE"/><use transform="matrix(0.04938271604938272,0,0,0.04938271604938272,10.370370370370372,0)" xlink:href="#aJ"/><use transform="matrix(0.04938271604938272,0,0,0.04938271604938272,21.185185185185187,0)" xlink:href="#aF"/><use transform="matrix(0.04938271604938272,0,0,0.04938271604938272,33.03703703703704,0)" xlink:href="#aG"/></g><path d="M52 0c1-96 47-148 87-207H15v-41h169v40c-36 62-79 113-81 208H52" id="bb"/><g id="v"><use transform="matrix(0.04938271604938272,0,0,0.04938271604938272,0,0)" xlink:href="#aS"/><use transform="matrix(0.04938271604938272,0,0,0.04938271604938272,10.814814814814815,0)" xlink:href="#aT"/><use transform="matrix(0.04938271604938272,0,0,0.04938271604938272,20.69135802469136,0)" xlink:href="#aU"/><use transform="matrix(0.04938271604938272,0,0,0.04938271604938272,26.567901234567902,0)" xlink:href="#aT"/><use transform="matrix(0.04938271604938272,0,0,0.04938271604938272,36.44444444444445,0)" xlink:href="#aV"/><use transform="matrix(0.04938271604938272,0,0,0.04938271604938272,42.320987654320994,0)" xlink:href="#bb"/></g><path fill="#333" d="M85-194c31 0 48 13 60 33l-1-100h32l1 261h-30c-2-10 0-23-3-31C134-8 116 4 85 4 32 4 16-35 15-94c0-66 23-100 70-100zm9 24c-40 0-46 34-46 75 0 40 6 74 45 74 42 0 51-32 51-76 0-42-9-74-50-73" id="bc"/><use transform="matrix(0.04938271604938272,0,0,0.04938271604938272,0,0)" xlink:href="#bc" id="w"/><path d="M108 0H70L1-190h34L89-25l56-165h34" id="bd"/><path d="M140-251c81 0 123 46 123 126C263-46 219 4 140 4 59 4 17-45 17-125s42-126 123-126zm0 227c63 0 89-41 89-101s-29-99-89-99c-61 0-89 39-89 99S79-25 140-24" id="be"/><path d="M101-234c-31-9-42 10-38 44h38v23H63V0H32v-167H5v-23h27c-7-52 17-82 69-68v24" id="bf"/><g id="x"><use transform="matrix(0.05,0,0,0.05,0,0)" xlink:href="#aY"/><use transform="matrix(0.05,0,0,0.05,12,0)" xlink:href="#aB"/><use transform="matrix(0.05,0,0,0.05,21,0)" xlink:href="#aI"/><use transform="matrix(0.05,0,0,0.05,26,0)" xlink:href="#aH"/><use transform="matrix(0.05,0,0,0.05,29.950000000000003,0)" xlink:href="#bd"/><use transform="matrix(0.05,0,0,0.05,38.95,0)" xlink:href="#aC"/><use transform="matrix(0.05,0,0,0.05,48.95,0)" xlink:href="#be"/><use transform="matrix(0.05,0,0,0.05,62.95,0)" xlink:href="#bf"/><use transform="matrix(0.05,0,0,0.05,67.6,0)" xlink:href="#bf"/><use transform="matrix(0.05,0,0,0.05,72.6,0)" xlink:href="#aC"/><use transform="matrix(0.05,0,0,0.05,82.6,0)" xlink:href="#ax"/><use transform="matrix(0.05,0,0,0.05,88.55,0)" xlink:href="#aD"/><use transform="matrix(0.05,0,0,0.05,93.55,0)" xlink:href="#az"/></g><g id="y"><use transform="matrix(0.05,0,0,0.05,0,0)" xlink:href="#aw"/><use transform="matrix(0.05,0,0,0.05,12,0)" xlink:href="#ax"/><use transform="matrix(0.05,0,0,0.05,17.95,0)" xlink:href="#ay"/><use transform="matrix(0.05,0,0,0.05,27.950000000000003,0)" xlink:href="#az"/><use transform="matrix(0.05,0,0,0.05,37.95,0)" xlink:href="#aA"/><use transform="matrix(0.05,0,0,0.05,47.95,0)" xlink:href="#aB"/><use transform="matrix(0.05,0,0,0.05,56.95,0)" xlink:href="#aI"/><use transform="matrix(0.05,0,0,0.05,61.95,0)" xlink:href="#aD"/><use transform="matrix(0.05,0,0,0.05,66.95,0)" xlink:href="#az"/></g><path d="M185-189c-5-48-123-54-124 2 14 75 158 14 163 119 3 78-121 87-175 55-17-10-28-26-33-46l33-7c5 56 141 63 141-1 0-78-155-14-162-118-5-82 145-84 179-34 5 7 8 16 11 25" id="bg"/><g id="z"><use transform="matrix(0.05,0,0,0.05,0,0)" xlink:href="#bg"/><use transform="matrix(0.05,0,0,0.05,12,0)" xlink:href="#aI"/><use transform="matrix(0.05,0,0,0.05,17,0)" xlink:href="#ay"/><use transform="matrix(0.05,0,0,0.05,27,0)" xlink:href="#ax"/><use transform="matrix(0.05,0,0,0.05,32.95,0)" xlink:href="#aC"/><use transform="matrix(0.05,0,0,0.05,42.95,0)" xlink:href="#aD"/><use transform="matrix(0.05,0,0,0.05,47.95,0)" xlink:href="#az"/></g><g id="A"><use transform="matrix(0.04938271604938272,0,0,0.04938271604938272,0,0)" xlink:href="#aJ"/><use transform="matrix(0.04938271604938272,0,0,0.04938271604938272,10.814814814814815,0)" xlink:href="#ax"/><use transform="matrix(0.04938271604938272,0,0,0.04938271604938272,16.691358024691358,0)" xlink:href="#ay"/><use transform="matrix(0.04938271604938272,0,0,0.04938271604938272,26.567901234567902,0)" xlink:href="#aM"/><use transform="matrix(0.04938271604938272,0,0,0.04938271604938272,41.333333333333336,0)" xlink:href="#aN"/><use transform="matrix(0.04938271604938272,0,0,0.04938271604938272,54.12345679012346,0)" xlink:href="#aL"/><use transform="matrix(0.04938271604938272,0,0,0.04938271604938272,64,0)" xlink:href="#aI"/><use transform="matrix(0.04938271604938272,0,0,0.04938271604938272,68.93827160493828,0)" xlink:href="#aC"/></g><g id="B"><use transform="matrix(0.04938271604938272,0,0,0.04938271604938272,0,0)" xlink:href="#aw"/><use transform="matrix(0.04938271604938272,0,0,0.04938271604938272,11.851851851851853,0)" xlink:href="#ax"/><use transform="matrix(0.04938271604938272,0,0,0.04938271604938272,17.728395061728396,0)" xlink:href="#aH"/><use transform="matrix(0.04938271604938272,0,0,0.04938271604938272,21.62962962962963,0)" xlink:href="#aB"/><use transform="matrix(0.04938271604938272,0,0,0.04938271604938272,30.518518518518523,0)" xlink:href="#aC"/></g><path d="M233-177c-1 41-23 64-60 70L243 0h-38l-65-103H63V0H30v-248c88 3 205-21 203 71zM63-129c60-2 137 13 137-47 0-61-80-42-137-45v92" id="bh"/><g id="C"><use transform="matrix(0.04938271604938272,0,0,0.04938271604938272,0,0)" xlink:href="#aN"/><use transform="matrix(0.04938271604938272,0,0,0.04938271604938272,12.790123456790125,0)" xlink:href="#aH"/><use transform="matrix(0.04938271604938272,0,0,0.04938271604938272,16.69135802469136,0)" xlink:href="#aZ"/><use transform="matrix(0.04938271604938272,0,0,0.04938271604938272,25.58024691358025,0)" xlink:href="#aB"/><use transform="matrix(0.04938271604938272,0,0,0.04938271604938272,34.46913580246914,0)" xlink:href="#ay"/><use transform="matrix(0.04938271604938272,0,0,0.04938271604938272,44.345679012345684,0)" xlink:href="#aA"/><use transform="matrix(0.04938271604938272,0,0,0.04938271604938272,54.22222222222223,0)" xlink:href="#aP"/><use transform="matrix(0.04938271604938272,0,0,0.04938271604938272,64.09876543209877,0)" xlink:href="#aI"/><use transform="matrix(0.04938271604938272,0,0,0.04938271604938272,69.03703703703704,0)" xlink:href="#bh"/><use transform="matrix(0.04938271604938272,0,0,0.04938271604938272,81.82716049382717,0)" xlink:href="#aL"/><use transform="matrix(0.04938271604938272,0,0,0.04938271604938272,91.70370370370371,0)" xlink:href="#aI"/><use transform="matrix(0.04938271604938272,0,0,0.04938271604938272,96.64197530864197,0)" xlink:href="#aC"/></g><path d="M143 0L79-87 56-68V0H24v-261h32v163l83-92h37l-77 82L181 0h-38" id="bi"/><g id="D"><use transform="matrix(0.04938271604938272,0,0,0.04938271604938272,0,0)" xlink:href="#aD"/><use transform="matrix(0.04938271604938272,0,0,0.04938271604938272,4.938271604938272,0)" xlink:href="#aP"/><use transform="matrix(0.04938271604938272,0,0,0.04938271604938272,14.814814814814817,0)" xlink:href="#bg"/><use transform="matrix(0.04938271604938272,0,0,0.04938271604938272,26.666666666666668,0)" xlink:href="#aI"/><use transform="matrix(0.04938271604938272,0,0,0.04938271604938272,31.60493827160494,0)" xlink:href="#ay"/><use transform="matrix(0.04938271604938272,0,0,0.04938271604938272,41.48148148148149,0)" xlink:href="#aB"/><use transform="matrix(0.04938271604938272,0,0,0.04938271604938272,50.37037037037038,0)" xlink:href="#bi"/><use transform="matrix(0.04938271604938272,0,0,0.04938271604938272,59.25925925925927,0)" xlink:href="#aO"/><use transform="matrix(0.04938271604938272,0,0,0.04938271604938272,72.0493827160494,0)" xlink:href="#ay"/><use transform="matrix(0.04938271604938272,0,0,0.04938271604938272,81.92592592592594,0)" xlink:href="#aA"/><use transform="matrix(0.04938271604938272,0,0,0.04938271604938272,91.80246913580248,0)" xlink:href="#aP"/><use transform="matrix(0.04938271604938272,0,0,0.04938271604938272,101.67901234567903,0)" xlink:href="#aI"/></g><path d="M127-220V0H93v-220H8v-28h204v28h-85" id="bj"/><g id="E"><use transform="matrix(0.04938271604938272,0,0,0.04938271604938272,0,0)" xlink:href="#bj"/><use transform="matrix(0.04938271604938272,0,0,0.04938271604938272,8.839506172839506,0)" xlink:href="#ay"/><use transform="matrix(0.04938271604938272,0,0,0.04938271604938272,18.71604938271605,0)" xlink:href="#aN"/><use transform="matrix(0.04938271604938272,0,0,0.04938271604938272,31.506172839506174,0)" xlink:href="#aL"/><use transform="matrix(0.04938271604938272,0,0,0.04938271604938272,41.38271604938272,0)" xlink:href="#aI"/><use transform="matrix(0.04938271604938272,0,0,0.04938271604938272,46.320987654320994,0)" xlink:href="#aC"/></g><g id="F"><use transform="matrix(0.04938271604938272,0,0,0.04938271604938272,0,0)" xlink:href="#aN"/><use transform="matrix(0.04938271604938272,0,0,0.04938271604938272,12.790123456790125,0)" xlink:href="#aC"/><use transform="matrix(0.04938271604938272,0,0,0.04938271604938272,22.66666666666667,0)" xlink:href="#aZ"/><use transform="matrix(0.04938271604938272,0,0,0.04938271604938272,31.555555555555557,0)" xlink:href="#aB"/><use transform="matrix(0.04938271604938272,0,0,0.04938271604938272,40.44444444444445,0)" xlink:href="#ax"/><use transform="matrix(0.04938271604938272,0,0,0.04938271604938272,46.320987654320994,0)" xlink:href="#aH"/><use transform="matrix(0.04938271604938272,0,0,0.04938271604938272,50.22222222222223,0)" xlink:href="#aQ"/><use transform="matrix(0.04938271604938272,0,0,0.04938271604938272,60.09876543209877,0)" xlink:href="#aI"/><use transform="matrix(0.04938271604938272,0,0,0.04938271604938272,65.03703703703704,0)" xlink:href="#aH"/><use transform="matrix(0.04938271604938272,0,0,0.04938271604938272,68.93827160493828,0)" xlink:href="#ay"/><use transform="matrix(0.04938271604938272,0,0,0.04938271604938272,78.81481481481482,0)" xlink:href="#aP"/></g><path d="M23 0v-37h61v-169l-59 37v-38l62-41h46v211h57V0H23" id="bk"/><path d="M101-251c68 0 84 54 84 127C185-50 166 4 99 4S15-52 14-124c-1-75 17-127 87-127zm-1 216c37-5 36-46 36-89s4-89-36-89c-39 0-36 45-36 89 0 43-3 85 36 89" id="bl"/><g id="G"><use transform="matrix(0.04938271604938272,0,0,0.04938271604938272,0,0)" xlink:href="#aS"/><use transform="matrix(0.04938271604938272,0,0,0.04938271604938272,10.814814814814815,0)" xlink:href="#aT"/><use transform="matrix(0.04938271604938272,0,0,0.04938271604938272,20.69135802469136,0)" xlink:href="#aU"/><use transform="matrix(0.04938271604938272,0,0,0.04938271604938272,26.567901234567902,0)" xlink:href="#aT"/><use transform="matrix(0.04938271604938272,0,0,0.04938271604938272,36.44444444444445,0)" xlink:href="#aV"/><use transform="matrix(0.04938271604938272,0,0,0.04938271604938272,42.320987654320994,0)" xlink:href="#bk"/><use transform="matrix(0.04938271604938272,0,0,0.04938271604938272,52.19753086419754,0)" xlink:href="#bl"/></g><path d="M137 0h-34L2-248h35l83 218 83-218h36" id="bm"/><g id="H"><use transform="matrix(0.05,0,0,0.05,0,0)" xlink:href="#bm"/><use transform="matrix(0.05,0,0,0.05,11,0)" xlink:href="#aC"/><use transform="matrix(0.05,0,0,0.05,21,0)" xlink:href="#aP"/><use transform="matrix(0.05,0,0,0.05,31,0)" xlink:href="#az"/><use transform="matrix(0.05,0,0,0.05,41,0)" xlink:href="#ay"/><use transform="matrix(0.05,0,0,0.05,51,0)" xlink:href="#ax"/><use transform="matrix(0.05,0,0,0.05,56.95,0)" xlink:href="#aD"/><use transform="matrix(0.05,0,0,0.05,61.95,0)" xlink:href="#az"/></g><g id="I"><use transform="matrix(0.04938271604938272,0,0,0.04938271604938272,0,0)" xlink:href="#aY"/><use transform="matrix(0.04938271604938272,0,0,0.04938271604938272,11.851851851851853,0)" xlink:href="#az"/><use transform="matrix(0.04938271604938272,0,0,0.04938271604938272,21.7283950617284,0)" xlink:href="#az"/><use transform="matrix(0.04938271604938272,0,0,0.04938271604938272,31.60493827160494,0)" xlink:href="#ax"/><use transform="matrix(0.04938271604938272,0,0,0.04938271604938272,37.48148148148149,0)" xlink:href="#aC"/><use transform="matrix(0.04938271604938272,0,0,0.04938271604938272,47.35802469135803,0)" xlink:href="#aZ"/><use transform="matrix(0.04938271604938272,0,0,0.04938271604938272,56.24691358024693,0)" xlink:href="#aZ"/></g><path d="M197 0v-115H63V0H30v-248h33v105h134v-105h34V0h-34" id="bn"/><g id="J"><use transform="matrix(0.04938271604938272,0,0,0.04938271604938272,0,0)" xlink:href="#be"/><use transform="matrix(0.04938271604938272,0,0,0.04938271604938272,13.827160493827162,0)" xlink:href="#aQ"/><use transform="matrix(0.04938271604938272,0,0,0.04938271604938272,23.703703703703706,0)" xlink:href="#aC"/><use transform="matrix(0.04938271604938272,0,0,0.04938271604938272,33.580246913580254,0)" xlink:href="#aP"/><use transform="matrix(0.04938271604938272,0,0,0.04938271604938272,43.4567901234568,0)" xlink:href="#aH"/><use transform="matrix(0.04938271604938272,0,0,0.04938271604938272,47.35802469135803,0)" xlink:href="#aP"/><use transform="matrix(0.04938271604938272,0,0,0.04938271604938272,57.23456790123457,0)" xlink:href="#ba"/><use transform="matrix(0.04938271604938272,0,0,0.04938271604938272,67.11111111111111,0)" xlink:href="#bn"/><use transform="matrix(0.04938271604938272,0,0,0.04938271604938272,79.90123456790124,0)" xlink:href="#ay"/><use transform="matrix(0.04938271604938272,0,0,0.04938271604938272,89.77777777777779,0)" xlink:href="#aA"/><use transform="matrix(0.04938271604938272,0,0,0.04938271604938272,99.65432098765433,0)" xlink:href="#ax"/><use transform="matrix(0.04938271604938272,0,0,0.04938271604938272,105.53086419753087,0)" xlink:href="#aZ"/></g><g id="K"><use transform="matrix(0.04938271604938272,0,0,0.04938271604938272,0,0)" xlink:href="#aS"/><use transform="matrix(0.04938271604938272,0,0,0.04938271604938272,10.814814814814815,0)" xlink:href="#aT"/><use transform="matrix(0.04938271604938272,0,0,0.04938271604938272,20.69135802469136,0)" xlink:href="#aU"/><use transform="matrix(0.04938271604938272,0,0,0.04938271604938272,26.567901234567902,0)" xlink:href="#aT"/><use transform="matrix(0.04938271604938272,0,0,0.04938271604938272,36.44444444444445,0)" xlink:href="#aV"/><use transform="matrix(0.04938271604938272,0,0,0.04938271604938272,42.320987654320994,0)" xlink:href="#bk"/><use transform="matrix(0.04938271604938272,0,0,0.04938271604938272,51.209876543209894,0)" xlink:href="#bk"/></g><path d="M106-169C34-169 62-67 57 0H25v-261h32l-1 103c12-21 28-36 61-36 89 0 53 116 60 194h-32v-121c2-32-8-49-39-48" id="bo"/><g id="M"><use transform="matrix(0.05,0,0,0.05,0,0)" xlink:href="#bn"/><use transform="matrix(0.05,0,0,0.05,12.950000000000001,0)" xlink:href="#aC"/><use transform="matrix(0.05,0,0,0.05,22.950000000000003,0)" xlink:href="#aH"/><use transform="matrix(0.05,0,0,0.05,26.900000000000002,0)" xlink:href="#ba"/><use transform="matrix(0.05,0,0,0.05,36.900000000000006,0)" xlink:href="#bo"/><use transform="matrix(0.05,0,0,0.05,46.900000000000006,0)" xlink:href="#aI"/></g><path d="M266 0h-40l-56-210L115 0H75L2-248h35L96-30l15-64 43-154h32l59 218 59-218h35" id="bp"/><g id="N"><use transform="matrix(0.05,0,0,0.05,0,0)" xlink:href="#bp"/><use transform="matrix(0.05,0,0,0.05,16.95,0)" xlink:href="#aH"/><use transform="matrix(0.05,0,0,0.05,20.9,0)" xlink:href="#az"/><use transform="matrix(0.05,0,0,0.05,30.899999999999995,0)" xlink:href="#aI"/><use transform="matrix(0.05,0,0,0.05,35.9,0)" xlink:href="#bo"/></g><path d="M232-93c-1 65-40 97-104 97C67 4 28-28 28-90v-158h33c8 89-33 224 67 224 102 0 64-133 71-224h33v155" id="bq"/><path d="M24 0v-261h32V0H24" id="br"/><g id="O"><use transform="matrix(0.05,0,0,0.05,0,0)" xlink:href="#bq"/><use transform="matrix(0.05,0,0,0.05,12.950000000000001,0)" xlink:href="#ax"/><use transform="matrix(0.05,0,0,0.05,18.900000000000002,0)" xlink:href="#br"/></g><path d="M182-182c0 78-84 86-111 141h115V0H12c-6-101 99-100 120-180 1-22-12-31-33-32-23 0-32 14-35 34l-49-3c5-45 32-70 84-70 51 0 83 22 83 69" id="bs"/><g id="P"><use transform="matrix(0.04938271604938272,0,0,0.04938271604938272,0,0)" xlink:href="#aS"/><use transform="matrix(0.04938271604938272,0,0,0.04938271604938272,10.814814814814815,0)" xlink:href="#aT"/><use transform="matrix(0.04938271604938272,0,0,0.04938271604938272,20.69135802469136,0)" xlink:href="#aU"/><use transform="matrix(0.04938271604938272,0,0,0.04938271604938272,26.567901234567902,0)" xlink:href="#aT"/><use transform="matrix(0.04938271604938272,0,0,0.04938271604938272,36.44444444444445,0)" xlink:href="#aV"/><use transform="matrix(0.04938271604938272,0,0,0.04938271604938272,42.320987654320994,0)" xlink:href="#bs"/></g><g id="Q"><use transform="matrix(0.04938271604938272,0,0,0.04938271604938272,0,0)" xlink:href="#aO"/><use transform="matrix(0.04938271604938272,0,0,0.04938271604938272,12.790123456790125,0)" xlink:href="#aL"/><use transform="matrix(0.04938271604938272,0,0,0.04938271604938272,22.66666666666667,0)" xlink:href="#aI"/><use transform="matrix(0.04938271604938272,0,0,0.04938271604938272,27.604938271604947,0)" xlink:href="#aC"/><use transform="matrix(0.04938271604938272,0,0,0.04938271604938272,37.48148148148149,0)" xlink:href="#ba"/><use transform="matrix(0.04938271604938272,0,0,0.04938271604938272,47.35802469135803,0)" xlink:href="#ay"/><use transform="matrix(0.04938271604938272,0,0,0.04938271604938272,57.23456790123457,0)" xlink:href="#ax"/><use transform="matrix(0.04938271604938272,0,0,0.04938271604938272,63.111111111111114,0)" xlink:href="#aR"/><use transform="matrix(0.04938271604938272,0,0,0.04938271604938272,72.00000000000001,0)" xlink:href="#aD"/><use transform="matrix(0.04938271604938272,0,0,0.04938271604938272,76.93827160493828,0)" xlink:href="#az"/></g><g id="R"><use transform="matrix(0.04938271604938272,0,0,0.04938271604938272,0,0)" xlink:href="#aE"/><use transform="matrix(0.04938271604938272,0,0,0.04938271604938272,10.370370370370372,0)" xlink:href="#aw"/><use transform="matrix(0.04938271604938272,0,0,0.04938271604938272,22.222222222222225,0)" xlink:href="#aJ"/><use transform="matrix(0.04938271604938272,0,0,0.04938271604938272,33.03703703703704,0)" xlink:href="#aG"/></g><g id="S"><use transform="matrix(0.04938271604938272,0,0,0.04938271604938272,0,0)" xlink:href="#aK"/><use transform="matrix(0.04938271604938272,0,0,0.04938271604938272,12.790123456790125,0)" xlink:href="#aL"/><use transform="matrix(0.04938271604938272,0,0,0.04938271604938272,22.66666666666667,0)" xlink:href="#aM"/><use transform="matrix(0.04938271604938272,0,0,0.04938271604938272,37.4320987654321,0)" xlink:href="#aC"/></g><path d="M87 75C49 33 22-17 22-94c0-76 28-126 65-167h31c-38 41-64 92-64 168S80 34 118 75H87" id="bt"/><path d="M33-261c38 41 65 92 65 168S71 34 33 75H2C39 34 66-17 66-93S39-220 2-261h31" id="bu"/><g id="T"><use transform="matrix(0.04938271604938272,0,0,0.04938271604938272,0,0)" xlink:href="#bt"/><use transform="matrix(0.04938271604938272,0,0,0.04938271604938272,5.8765432098765435,0)" xlink:href="#aC"/><use transform="matrix(0.04938271604938272,0,0,0.04938271604938272,15.753086419753087,0)" xlink:href="#aP"/><use transform="matrix(0.04938271604938272,0,0,0.04938271604938272,25.629629629629633,0)" xlink:href="#bu"/></g><g id="U"><use transform="matrix(0.04938271604938272,0,0,0.04938271604938272,0,0)" xlink:href="#bt"/><use transform="matrix(0.04938271604938272,0,0,0.04938271604938272,5.8765432098765435,0)" xlink:href="#aB"/><use transform="matrix(0.04938271604938272,0,0,0.04938271604938272,14.765432098765434,0)" xlink:href="#aZ"/><use transform="matrix(0.04938271604938272,0,0,0.04938271604938272,23.654320987654323,0)" xlink:href="#bu"/></g><g id="V"><use transform="matrix(0.04938271604938272,0,0,0.04938271604938272,0,0)" xlink:href="#bt"/><use transform="matrix(0.04938271604938272,0,0,0.04938271604938272,5.8765432098765435,0)" xlink:href="#bd"/><use transform="matrix(0.04938271604938272,0,0,0.04938271604938272,14.765432098765434,0)" xlink:href="#aH"/><use transform="matrix(0.04938271604938272,0,0,0.04938271604938272,18.666666666666668,0)" xlink:href="#bu"/></g><g id="W"><use transform="matrix(0.04938271604938272,0,0,0.04938271604938272,0,0)" xlink:href="#aw"/><use transform="matrix(0.04938271604938272,0,0,0.04938271604938272,11.851851851851853,0)" xlink:href="#aL"/><use transform="matrix(0.04938271604938272,0,0,0.04938271604938272,21.7283950617284,0)" xlink:href="#ax"/><use transform="matrix(0.04938271604938272,0,0,0.04938271604938272,27.604938271604947,0)" xlink:href="#aC"/><use transform="matrix(0.04938271604938272,0,0,0.04938271604938272,37.48148148148149,0)" xlink:href="#aP"/><use transform="matrix(0.04938271604938272,0,0,0.04938271604938272,47.35802469135803,0)" xlink:href="#aI"/><use transform="matrix(0.04938271604938272,0,0,0.04938271604938272,52.2962962962963,0)" xlink:href="#aO"/><use transform="matrix(0.04938271604938272,0,0,0.04938271604938272,65.08641975308643,0)" xlink:href="#aL"/><use transform="matrix(0.04938271604938272,0,0,0.04938271604938272,74.96296296296298,0)" xlink:href="#aI"/><use transform="matrix(0.04938271604938272,0,0,0.04938271604938272,79.90123456790124,0)" xlink:href="#aC"/><use transform="matrix(0.04938271604938272,0,0,0.04938271604938272,89.77777777777779,0)" xlink:href="#ba"/><use transform="matrix(0.04938271604938272,0,0,0.04938271604938272,99.65432098765433,0)" xlink:href="#ay"/><use transform="matrix(0.04938271604938272,0,0,0.04938271604938272,109.53086419753087,0)" xlink:href="#ax"/><use transform="matrix(0.04938271604938272,0,0,0.04938271604938272,115.40740740740742,0)" xlink:href="#aR"/></g><g id="X"><use transform="matrix(0.04938271604938272,0,0,0.04938271604938272,0,0)" xlink:href="#aS"/><use transform="matrix(0.04938271604938272,0,0,0.04938271604938272,10.814814814814815,0)" xlink:href="#aT"/><use transform="matrix(0.04938271604938272,0,0,0.04938271604938272,20.69135802469136,0)" xlink:href="#aU"/><use transform="matrix(0.04938271604938272,0,0,0.04938271604938272,26.567901234567902,0)" xlink:href="#aT"/><use transform="matrix(0.04938271604938272,0,0,0.04938271604938272,36.44444444444445,0)" xlink:href="#aV"/><use transform="matrix(0.04938271604938272,0,0,0.04938271604938272,42.320987654320994,0)" xlink:href="#bk"/></g><path d="M135-150c-39-12-60 13-60 57V0H25l-1-190h47c2 13-1 29 3 40 6-28 27-53 61-41v41" id="bv"/><path d="M185-48c-13 30-37 53-82 52C43 2 14-33 14-96s30-98 90-98c62 0 83 45 84 108H66c0 31 8 55 39 56 18 0 30-7 34-22zm-45-69c5-46-57-63-70-21-2 6-4 13-4 21h74" id="bw"/><path d="M25 0v-261h50V0H25" id="bx"/><path d="M25-224v-37h50v37H25zM25 0v-190h50V0H25" id="by"/><path d="M110-194c64 0 96 36 96 99 0 64-35 99-97 99-61 0-95-36-95-99 0-62 34-99 96-99zm-1 164c35 0 45-28 45-65 0-40-10-65-43-65-34 0-45 26-45 65 0 36 10 65 43 65" id="bz"/><path d="M135-194c87-1 58 113 63 194h-50c-7-57 23-157-34-157-59 0-34 97-39 157H25l-1-190h47c2 12-1 28 3 38 12-26 28-41 61-42" id="bA"/><g id="Y"><use transform="matrix(0.0728395061728395,0,0,0.0728395061728395,0,0)" xlink:href="#bv"/><use transform="matrix(0.0728395061728395,0,0,0.0728395061728395,10.19753086419753,0)" xlink:href="#bw"/><use transform="matrix(0.0728395061728395,0,0,0.0728395061728395,24.76543209876543,0)" xlink:href="#bx"/><use transform="matrix(0.0728395061728395,0,0,0.0728395061728395,32.04938271604938,0)" xlink:href="#aT"/><use transform="matrix(0.0728395061728395,0,0,0.0728395061728395,46.61728395061728,0)" xlink:href="#aU"/><use transform="matrix(0.0728395061728395,0,0,0.0728395061728395,55.28518518518518,0)" xlink:href="#by"/><use transform="matrix(0.0728395061728395,0,0,0.0728395061728395,62.56913580246913,0)" xlink:href="#bz"/><use transform="matrix(0.0728395061728395,0,0,0.0728395061728395,78.52098765432098,0)" xlink:href="#bA"/><use transform="matrix(0.0728395061728395,0,0,0.0728395061728395,94.47283950617283,0)" xlink:href="#aT"/><use transform="matrix(0.0728395061728395,0,0,0.0728395061728395,109.04074074074072,0)" xlink:href="#bx"/></g><path d="M220-157c-53 9-28 100-34 157h-49v-107c1-27-5-49-29-50C55-147 81-57 75 0H25l-1-190h47c2 12-1 28 3 38 10-53 101-56 108 0 13-22 24-43 59-42 82 1 51 116 57 194h-49v-107c-1-25-5-48-29-50" id="bB"/><g id="Z"><use transform="matrix(0.0728395061728395,0,0,0.0728395061728395,0,0)" xlink:href="#bB"/><use transform="matrix(0.0728395061728395,0,0,0.0728395061728395,23.308641975308642,0)" xlink:href="#bz"/><use transform="matrix(0.0728395061728395,0,0,0.0728395061728395,39.260493827160495,0)" xlink:href="#aS"/><use transform="matrix(0.0728395061728395,0,0,0.0728395061728395,55.212345679012344,0)" xlink:href="#bw"/><use transform="matrix(0.0728395061728395,0,0,0.0728395061728395,69.78024691358024,0)" xlink:href="#bx"/></g><g id="aa"><use transform="matrix(0.05,0,0,0.05,0,0)" xlink:href="#bh"/><use transform="matrix(0.05,0,0,0.05,12.950000000000001,0)" xlink:href="#aL"/><use transform="matrix(0.05,0,0,0.05,22.950000000000003,0)" xlink:href="#aI"/><use transform="matrix(0.05,0,0,0.05,27.950000000000003,0)" xlink:href="#aH"/><use transform="matrix(0.05,0,0,0.05,31.900000000000002,0)" xlink:href="#aP"/><use transform="matrix(0.05,0,0,0.05,41.900000000000006,0)" xlink:href="#ba"/><use transform="matrix(0.05,0,0,0.05,51.900000000000006,0)" xlink:href="#aD"/><use transform="matrix(0.05,0,0,0.05,56.900000000000006,0)" xlink:href="#az"/></g><g id="ab"><use transform="matrix(0.05,0,0,0.05,0,0)" xlink:href="#aE"/><use transform="matrix(0.05,0,0,0.05,10.5,0)" xlink:href="#aw"/><use transform="matrix(0.05,0,0,0.05,22.5,0)" xlink:href="#aF"/><use transform="matrix(0.05,0,0,0.05,34.5,0)" xlink:href="#aG"/></g><g id="ac"><use transform="matrix(0.05,0,0,0.05,0,0)" xlink:href="#bh"/><use transform="matrix(0.05,0,0,0.05,12.950000000000001,0)" xlink:href="#aL"/><use transform="matrix(0.05,0,0,0.05,22.950000000000003,0)" xlink:href="#aI"/><use transform="matrix(0.05,0,0,0.05,27.950000000000003,0)" xlink:href="#aH"/><use transform="matrix(0.05,0,0,0.05,31.900000000000002,0)" xlink:href="#aP"/><use transform="matrix(0.05,0,0,0.05,41.900000000000006,0)" xlink:href="#ba"/></g><g id="ad"><use transform="matrix(0.05,0,0,0.05,0,0)" xlink:href="#aw"/><use transform="matrix(0.05,0,0,0.05,12,0)" xlink:href="#ax"/><use transform="matrix(0.05,0,0,0.05,17.95,0)" xlink:href="#ay"/><use transform="matrix(0.05,0,0,0.05,27.950000000000003,0)" xlink:href="#az"/><use transform="matrix(0.05,0,0,0.05,37.95,0)" xlink:href="#aA"/><use transform="matrix(0.05,0,0,0.05,47.95,0)" xlink:href="#aB"/><use transform="matrix(0.05,0,0,0.05,56.95,0)" xlink:href="#aC"/><use transform="matrix(0.05,0,0,0.05,66.95,0)" xlink:href="#ax"/><use transform="matrix(0.05,0,0,0.05,72.9,0)" xlink:href="#aD"/><use transform="matrix(0.05,0,0,0.05,77.9,0)" xlink:href="#az"/></g><g id="ae"><use transform="matrix(0.05,0,0,0.05,0,0)" xlink:href="#aE"/><use transform="matrix(0.05,0,0,0.05,10.5,0)" xlink:href="#aJ"/><use transform="matrix(0.05,0,0,0.05,21.450000000000003,0)" xlink:href="#aF"/><use transform="matrix(0.05,0,0,0.05,33.45,0)" xlink:href="#aG"/></g><path d="M115-159c48 0 72 30 72 78 0 54-30 85-83 85-64 0-91-50-91-122 0-98 58-163 141-120 15 8 21 24 27 44l-47 6c-5-31-48-31-61-4-7 14-11 33-11 60 9-17 28-27 53-27zM102-35c24 0 36-20 36-45s-11-43-37-43c-23 0-36 14-36 38 0 27 11 50 37 50" id="bC"/><g id="af"><use transform="matrix(0.04938271604938272,0,0,0.04938271604938272,0,0)" xlink:href="#aS"/><use transform="matrix(0.04938271604938272,0,0,0.04938271604938272,10.814814814814815,0)" xlink:href="#aT"/><use transform="matrix(0.04938271604938272,0,0,0.04938271604938272,20.69135802469136,0)" xlink:href="#aU"/><use transform="matrix(0.04938271604938272,0,0,0.04938271604938272,26.567901234567902,0)" xlink:href="#aT"/><use transform="matrix(0.04938271604938272,0,0,0.04938271604938272,36.44444444444445,0)" xlink:href="#aV"/><use transform="matrix(0.04938271604938272,0,0,0.04938271604938272,42.320987654320994,0)" xlink:href="#bC"/></g><g id="ag"><use transform="matrix(0.05,0,0,0.05,0,0)" xlink:href="#bm"/><use transform="matrix(0.05,0,0,0.05,11,0)" xlink:href="#aC"/><use transform="matrix(0.05,0,0,0.05,21,0)" xlink:href="#aP"/><use transform="matrix(0.05,0,0,0.05,31,0)" xlink:href="#az"/><use transform="matrix(0.05,0,0,0.05,41,0)" xlink:href="#ay"/><use transform="matrix(0.05,0,0,0.05,51,0)" xlink:href="#ax"/><use transform="matrix(0.05,0,0,0.05,56.95,0)" xlink:href="#aD"/><use transform="matrix(0.05,0,0,0.05,61.95,0)" xlink:href="#az"/></g><g id="ah"><use transform="matrix(0.05,0,0,0.05,0,0)" xlink:href="#aw"/><use transform="matrix(0.05,0,0,0.05,12,0)" xlink:href="#aH"/><use transform="matrix(0.05,0,0,0.05,15.949999999999998,0)" xlink:href="#aB"/><use transform="matrix(0.05,0,0,0.05,24.95,0)" xlink:href="#aI"/><use transform="matrix(0.05,0,0,0.05,29.950000000000003,0)" xlink:href="#aA"/><use transform="matrix(0.05,0,0,0.05,39.95,0)" xlink:href="#ax"/><use transform="matrix(0.05,0,0,0.05,45.900000000000006,0)" xlink:href="#aC"/></g><path d="M99-251c69 0 84 53 88 123 5 99-61 162-144 118-15-8-21-25-26-45l46-6c4 31 50 33 63 7 7-15 12-36 12-60-9 18-29 28-54 28-48 0-72-32-72-82 0-55 31-83 87-83zm-1 128c24 0 37-16 37-39 0-27-10-51-37-51-25 0-35 19-35 45 0 25 10 45 35 45" id="bD"/><g id="ai"><use transform="matrix(0.04938271604938272,0,0,0.04938271604938272,0,0)" xlink:href="#aS"/><use transform="matrix(0.04938271604938272,0,0,0.04938271604938272,10.814814814814815,0)" xlink:href="#aT"/><use transform="matrix(0.04938271604938272,0,0,0.04938271604938272,20.69135802469136,0)" xlink:href="#aU"/><use transform="matrix(0.04938271604938272,0,0,0.04938271604938272,26.567901234567902,0)" xlink:href="#aT"/><use transform="matrix(0.04938271604938272,0,0,0.04938271604938272,36.44444444444445,0)" xlink:href="#aV"/><use transform="matrix(0.04938271604938272,0,0,0.04938271604938272,42.320987654320994,0)" xlink:href="#bD"/></g><g id="aj"><use transform="matrix(0.05,0,0,0.05,0,0)" xlink:href="#aw"/><use transform="matrix(0.05,0,0,0.05,12,0)" xlink:href="#ax"/><use transform="matrix(0.05,0,0,0.05,17.95,0)" xlink:href="#ay"/><use transform="matrix(0.05,0,0,0.05,27.950000000000003,0)" xlink:href="#az"/><use transform="matrix(0.05,0,0,0.05,37.95,0)" xlink:href="#aA"/><use transform="matrix(0.05,0,0,0.05,47.95,0)" xlink:href="#aB"/><use transform="matrix(0.05,0,0,0.05,56.95,0)" xlink:href="#aI"/><use transform="matrix(0.05,0,0,0.05,61.95,0)" xlink:href="#aD"/><use transform="matrix(0.05,0,0,0.05,66.95,0)" xlink:href="#az"/></g><path d="M128-127c34 4 56 21 59 58 7 91-148 94-172 28-4-9-6-17-7-26l51-5c1 24 16 35 40 36 23 0 39-12 38-36-1-31-31-36-65-34v-40c32 2 59-3 59-33 0-20-13-33-34-33s-33 13-35 32l-50-3c6-44 37-68 86-68 50 0 83 20 83 66 0 35-22 52-53 58" id="bE"/><g id="ak"><use transform="matrix(0.04938271604938272,0,0,0.04938271604938272,0,0)" xlink:href="#aS"/><use transform="matrix(0.04938271604938272,0,0,0.04938271604938272,10.814814814814815,0)" xlink:href="#aT"/><use transform="matrix(0.04938271604938272,0,0,0.04938271604938272,20.69135802469136,0)" xlink:href="#aU"/><use transform="matrix(0.04938271604938272,0,0,0.04938271604938272,26.567901234567902,0)" xlink:href="#aT"/><use transform="matrix(0.04938271604938272,0,0,0.04938271604938272,36.44444444444445,0)" xlink:href="#aV"/><use transform="matrix(0.04938271604938272,0,0,0.04938271604938272,42.320987654320994,0)" xlink:href="#bE"/></g><g id="al"><use transform="matrix(0.05,0,0,0.05,0,0)" xlink:href="#bm"/><use transform="matrix(0.05,0,0,0.05,11,0)" xlink:href="#aC"/><use transform="matrix(0.05,0,0,0.05,21,0)" xlink:href="#aP"/><use transform="matrix(0.05,0,0,0.05,31,0)" xlink:href="#az"/><use transform="matrix(0.05,0,0,0.05,41,0)" xlink:href="#ay"/><use transform="matrix(0.05,0,0,0.05,51,0)" xlink:href="#ax"/><use transform="matrix(0.05,0,0,0.05,56.95,0)" xlink:href="#aD"/><use transform="matrix(0.05,0,0,0.05,61.95,0)" xlink:href="#az"/></g><path d="M165-50V0h-47v-50H5v-38l105-160h55v161h33v37h-33zm-47-37l2-116L46-87h72" id="bF"/><g id="am"><use transform="matrix(0.04938271604938272,0,0,0.04938271604938272,0,0)" xlink:href="#aS"/><use transform="matrix(0.04938271604938272,0,0,0.04938271604938272,10.814814814814815,0)" xlink:href="#aT"/><use transform="matrix(0.04938271604938272,0,0,0.04938271604938272,20.69135802469136,0)" xlink:href="#aU"/><use transform="matrix(0.04938271604938272,0,0,0.04938271604938272,26.567901234567902,0)" xlink:href="#aT"/><use transform="matrix(0.04938271604938272,0,0,0.04938271604938272,36.44444444444445,0)" xlink:href="#aV"/><use transform="matrix(0.04938271604938272,0,0,0.04938271604938272,42.320987654320994,0)" xlink:href="#bF"/></g><g id="an"><use transform="matrix(0.05,0,0,0.05,0,0)" xlink:href="#bg"/><use transform="matrix(0.05,0,0,0.05,12,0)" xlink:href="#aI"/><use transform="matrix(0.05,0,0,0.05,17,0)" xlink:href="#ay"/><use transform="matrix(0.05,0,0,0.05,27,0)" xlink:href="#ax"/><use transform="matrix(0.05,0,0,0.05,32.95,0)" xlink:href="#aC"/><use transform="matrix(0.05,0,0,0.05,42.95,0)" xlink:href="#aI"/><use transform="matrix(0.05,0,0,0.05,47.95,0)" xlink:href="#aD"/><use transform="matrix(0.05,0,0,0.05,52.95,0)" xlink:href="#az"/></g><path d="M139-81c0-46-55-55-73-27H18l9-140h149v37H72l-4 63c44-38 133-4 122 66C201 21 21 35 11-62l49-4c5 18 15 30 39 30 26 0 40-18 40-45" id="bG"/><g id="ao"><use transform="matrix(0.04938271604938272,0,0,0.04938271604938272,0,0)" xlink:href="#aS"/><use transform="matrix(0.04938271604938272,0,0,0.04938271604938272,10.814814814814815,0)" xlink:href="#aT"/><use transform="matrix(0.04938271604938272,0,0,0.04938271604938272,20.69135802469136,0)" xlink:href="#aU"/><use transform="matrix(0.04938271604938272,0,0,0.04938271604938272,26.567901234567902,0)" xlink:href="#aT"/><use transform="matrix(0.04938271604938272,0,0,0.04938271604938272,36.44444444444445,0)" xlink:href="#aV"/><use transform="matrix(0.04938271604938272,0,0,0.04938271604938272,42.320987654320994,0)" xlink:href="#bG"/></g></defs></g></svg>